# xmcd CD database file
#
# Track frame offsets:
#	150
#	11187
#	12833
#	18242
#	26622
#	37968
#	43550
#	48814
#	54109
#	71569
#	75292
#	88786
#	100175
#	109155
#	126908
#	145675
#	156524
#
# Disc length: 2574 seconds
#
# Revision: 1
# Processed by: cddbd v1.4PL0 Copyright (c) Steve Scherf et al.
# Submitted via: CDex 1.40Beta5
#
DISCID=cb0a0c11
DTITLE=El Fish - A12
DYEAR=2000
DGENRE=Blues
TTITLE0=Boogie Boogie
TTITLE1=Petite Monique
TTITLE2=Blauwe Gitaar
TTITLE3=Michael Claxon
TTITLE4=Boomse Daisies
TTITLE5=Oelala
TTITLE6=Den Diner
TTITLE7=Pussy Arrête
TTITLE8=Echappement
TTITLE9=Marieke Van Den Duvel
TTITLE10=Braindonk
TTITLE11=Blow Man Blow
TTITLE12=Monique
TTITLE13=The Crash
TTITLE14=Intrede
TTITLE15=Rijstebrij
TTITLE16=Boenke Boenke Bam Bam
EXTD=YEAR: 2000 ID3G:   0
EXTT0=
EXTT1=
EXTT2=
EXTT3=
EXTT4=
EXTT5=
EXTT6=
EXTT7=
EXTT8=
EXTT9=
EXTT10=
EXTT11=
EXTT12=
EXTT13=
EXTT14=
EXTT15=
EXTT16=
PLAYORDER=
